<?xml version="1.0" encoding="utf-8"?>
<!-- Generator: Adobe Illustrator 23.0.1, SVG Export Plug-In . SVG Version: 6.00 Build 0)  -->
<svg version="1.1" id="Layer_1" xmlns="http://www.w3.org/2000/svg" xmlns:xlink="http://www.w3.org/1999/xlink" x="0px" y="0px"
	 width="41.8px" height="40.8px" viewBox="0 0 41.8 40.8" style="enable-background:new 0 0 41.8 40.8;" xml:space="preserve">
<style type="text/css">
	.st0{opacity:0.1;}
	.st1{fill:#FFFFFF;}
</style>
<g class="st0">
	<path class="st1" d="M16.9,24.5c0.1,0,0.2,0,0.3,0c1.9-0.2,3.3-1.9,3.1-3.8c-0.2-1.8-1.7-3.1-3.4-3.1c-0.1,0-0.2,0-0.3,0
		c-1.9,0.2-3.3,1.9-3.1,3.8C13.6,23.2,15.1,24.5,16.9,24.5z"/>
	<path class="st1" d="M52.6,46.3c-0.6-0.5-1.4-0.8-2.2-0.8c-1,0-2,0.4-2.6,1.2c-1.2,1.5-1,3.6,0.4,4.9c0.6,0.5,1.4,0.8,2.2,0.8
		c1,0,2-0.4,2.7-1.2C54.3,49.7,54.1,47.5,52.6,46.3z"/>
	<path class="st1" d="M35.7,24.8c0.8,0.7,1.8,1,2.8,1c1.3,0,2.6-0.6,3.5-1.6c1.6-1.9,1.3-4.7-0.6-6.3c-0.8-0.7-1.8-1-2.8-1
		c-1.3,0-2.6,0.6-3.5,1.6C33.6,20.4,33.8,23.2,35.7,24.8z"/>
	<path class="st1" d="M29.3,16.6c0.1,0,0.2,0,0.4,0c2-0.2,3.4-2,3.3-3.9c-0.2-1.9-1.7-3.3-3.6-3.3c-0.1,0-0.2,0-0.4,0
		c-2,0.2-3.4,2-3.3,3.9C25.9,15.2,27.5,16.6,29.3,16.6z"/>
	<path class="st1" d="M10.7,38.6c0.1,0,0.2,0,0.3,0c2-0.2,3.4-2,3.2-4c-0.2-1.9-1.8-3.3-3.6-3.3c-0.1,0-0.2,0-0.3,0
		c-2,0.2-3.5,2-3.3,4C7.2,37.2,8.8,38.6,10.7,38.6z"/>
	<path class="st1" d="M45.7,16.8c0.1,0,0.2,0,0.4,0c2-0.2,3.4-2,3.3-4c-0.2-1.9-1.8-3.3-3.6-3.3c-0.1,0-0.2,0-0.4,0
		c-2,0.2-3.4,2-3.2,3.9C42.3,15.4,43.9,16.8,45.7,16.8z"/>
	<path class="st1" d="M58,53c-0.1,0-0.1,0-0.2,0c-1.2,0.1-2.1,1.2-2,2.4c0.1,1.1,1.1,2,2.2,2c0.1,0,0.1,0,0.2,0
		c1.2-0.1,2.1-1.2,2-2.4C60.1,53.8,59.1,53,58,53z"/>
	<path class="st1" d="M10.2,16.4c0.1,0,0.1,0,0.2,0c1.2-0.1,2.1-1.2,2-2.4c-0.1-1.1-1.1-2-2.2-2c-0.1,0-0.1,0-0.2,0
		c-1.2,0.1-2.1,1.2-2,2.4C8.1,15.5,9.1,16.4,10.2,16.4z"/>
	<path class="st1" d="M36.4,4.4c0.1,0,0.1,0,0.2,0c1.2-0.1,2.1-1.2,2-2.4c-0.1-1.1-1.1-2-2.2-2c-0.1,0-0.1,0-0.2,0
		c-1.2,0.1-2.1,1.2-2,2.4C34.3,3.5,35.3,4.4,36.4,4.4z"/>
	<path class="st1" d="M2.6,24.9c-0.1,0-0.1,0-0.2,0c-1.2,0.1-2.1,1.2-2,2.4c0.1,1.1,1.1,2,2.2,2c0.1,0,0.1,0,0.2,0
		c1.2-0.1,2.1-1.2,2-2.4C4.6,25.7,3.7,24.9,2.6,24.9z"/>
	<path class="st1" d="M1.2,42c-0.1,0-0.1,0-0.2,0c-1.2,0.1-2.1,1.2-2,2.4c0.1,1.1,1.1,2,2.2,2c0.1,0,0.1,0,0.2,0
		c1.2-0.1,2.1-1.2,2-2.4C3.3,42.8,2.3,42,1.2,42z"/>
	<path class="st1" d="M21.7,7.7c0.1,0,0.1,0,0.2,0c1.2-0.1,2.1-1.2,2-2.4c-0.1-1.1-1.1-2-2.2-2c-0.1,0-0.1,0-0.2,0
		c-1.2,0.1-2.1,1.2-2,2.4C19.6,6.9,20.6,7.7,21.7,7.7z"/>
	<path class="st1" d="M51,7.2c0.1,0,0.1,0,0.2,0c1.2-0.1,2.1-1.2,2-2.4c-0.1-1.1-1.1-2-2.2-2c-0.1,0-0.1,0-0.2,0
		c-1.2,0.1-2.1,1.2-2,2.4C48.9,6.3,49.9,7.2,51,7.2z"/>
	<path class="st1" d="M40,35.4L40,35.4c-1.2,0.2-2.5-0.1-3.5-0.9c-1-0.8-1.5-2.1-1.6-3.3v0c-0.3-2.9-2.9-5-5.8-4.7
		c-2.9,0.3-5.1,2.9-4.8,5.8c0.3,2.9,2.9,5,5.8,4.8c1.2-0.2,2.5,0.1,3.5,0.9c1,0.8,1.6,2.1,1.6,3.3c0.3,2.9,2.9,5,5.8,4.7
		c2.9-0.3,5.1-2.9,4.8-5.8C45.4,37.3,42.9,35.1,40,35.4z"/>
	<path class="st1" d="M52.7,26c-2.1-1.8-5.3-1.5-7,0.7c-1.8,2.1-1.5,5.3,0.7,7c2.1,1.8,5.3,1.5,7-0.7C55.2,30.9,54.9,27.8,52.7,26z"
		/>
	<path class="st1" d="M24.1,38.9c-2-1.7-5-1.4-6.6,0.6c-1.7,2-1.4,5,0.6,6.6c2,1.7,5,1.4,6.6-0.6C26.4,43.6,26.1,40.6,24.1,38.9z"/>
	<path class="st1" d="M57.2,17.5c-2,0.2-3.5,2-3.3,3.9c0.2,2,2,3.4,4,3.3c2-0.2,3.4-2,3.2-4C60.9,18.7,59.2,17.3,57.2,17.5z"/>
	<path class="st1" d="M13.9,48.8c-2,0.2-3.4,2-3.3,3.9c0.2,2,2,3.4,3.9,3.3c2-0.2,3.5-2,3.3-3.9C17.7,50,15.9,48.6,13.9,48.8z"/>
	<path class="st1" d="M63.1,11.3c-1.2,0.1-2.1,1.2-2,2.4c0.1,1.2,1.2,2.1,2.4,2c1.2-0.1,2.1-1.2,2-2.4C65.4,12,64.3,11.1,63.1,11.3z
		"/>
	<path class="st1" d="M7.8,57.5c-1.2,0.1-2.1,1.2-2,2.4c0.1,1.2,1.2,2.1,2.4,2c1.2-0.1,2.1-1.2,2-2.4C10.1,58.3,9,57.4,7.8,57.5z"/>
</g>
</svg>
